<svg xmlns="http://www.w3.org/2000/svg" width="30" height="30" viewBox="0 0 30 30">
    <g fill="none" fill-rule="evenodd">
        <path fill="#3A5285" d="M28.344 29.754A1.65 1.65 0 0 0 30 28.112V1.642C30 .735 29.259 0 28.344 0H1.656C.74 0 0 .735 0 1.642v26.47c0 .907.741 1.642 1.656 1.642h26.688"/>
        <path fill="#FFFFFE" d="M20.403 29.948V18.425h3.9l.584-4.49h-4.484v-2.867c0-1.3.364-2.186 2.244-2.186l2.398-.001V4.864c-.415-.054-1.838-.176-3.494-.176-3.457 0-5.823 2.092-5.823 5.935v3.312h-3.91v4.49h3.91v11.523h4.675"/>
    </g>
</svg>
