<svg id="c092b6b5-53c6-46ee-9bfc-e3509732b4f7" data-name="Layer 1" xmlns="http://www.w3.org/2000/svg" viewBox="0 0 704.6 144"><defs><style>.\38 0f67a03-9036-4db2-8894-822eea2bbf27{fill:none;}.\39 d728ab5-2390-49fb-b12f-4661170b5530{fill:#f9bc15;}.\30 8354f5a-e9d1-4d80-9634-c410626517d0,.\36 9c48b28-1b1f-45fb-ab46-7b6176587699,.\38 07e7961-aea7-4d2e-812e-1780ea1f4a5d,.\38 228a578-6614-458a-91ac-614e3a5d8ae6,.\39 d728ab5-2390-49fb-b12f-4661170b5530,.ad1c9d45-fde9-44d3-9561-b3929f9301a9{fill-rule:evenodd;}.\30 8354f5a-e9d1-4d80-9634-c410626517d0{fill:#d23d2f;}.\36 9c48b28-1b1f-45fb-ab46-7b6176587699{fill:#557dbf;}.ad1c9d45-fde9-44d3-9561-b3929f9301a9{fill:#34a850;}.\38 07e7961-aea7-4d2e-812e-1780ea1f4a5d{fill:#36a852;}.\38 228a578-6614-458a-91ac-614e3a5d8ae6{fill:#34a851;}.f8ef77b4-5c36-4586-9da4-bf817af8c6fe{fill:#606161;}</style></defs><title>digi_svg</title><rect class="80f67a03-9036-4db2-8894-822eea2bbf27" width="704.6" height="144"/><path class="9d728ab5-2390-49fb-b12f-4661170b5530" d="M167.39,132.24a59.94,59.94,0,0,1-39.65-14.92l5.1-5.1h0l6-6a44.31,44.31,0,0,1-9.93-55.72l-6.13-6.13a52.71,52.71,0,0,0,4.49,62.15l-5.13,5.13,0,0-5.89,5.88a68.48,68.48,0,0,0,90.47,10.61l-6-6a59.9,59.9,0,0,1-33.3,10.05"/><path class="08354f5a-e9d1-4d80-9634-c410626517d0" d="M223.77,33l-6,6A60.17,60.17,0,0,1,213,111.63l-5.13-5.13h0l-6-6A44.31,44.31,0,0,1,145.61,111l-6.13,6.13a52.7,52.7,0,0,0,62.68-4.83l5.1,5.1h0l5.89,5.89A68.48,68.48,0,0,0,223.77,33"/><path class="69c48b28-1b1f-45fb-ab46-7b6176587699" d="M195,27.52a52.71,52.71,0,0,0-61.67,4.63l-5.5-5.5h0l-5.89-5.89a68.49,68.49,0,0,0-10.75,90.48l6-6A60.18,60.18,0,0,1,122,32.47L124.46,35l0,0,8.93,8.93a44.3,44.3,0,0,1,55.39-10.21Z"/><path class="ad1c9d45-fde9-44d3-9561-b3929f9301a9" d="M207.21,37.74l5.47-5.47,0,0,5.89-5.89,0,0,0,0-.44-.44q-2.24-2.46-4.7-4.7l-.44-.45,0,0a68.48,68.48,0,0,0-84.42-5.25l6,6a60.17,60.17,0,0,1,72.55,5.15l-5.5,5.5h0l-6,6a44.31,44.31,0,0,1,10.64,55.47l6.15,6.15a52.72,52.72,0,0,0-5.21-62"/><path class="08354f5a-e9d1-4d80-9634-c410626517d0" d="M162.86,107a63.58,63.58,0,0,1-6.5-8.17,4.44,4.44,0,0,1-1.39.65c-.83,3.51-1.26,5.63-1.44,5.58a35.8,35.8,0,0,0,9.51,2.53Z"/><path class="69c48b28-1b1f-45fb-ab46-7b6176587699" d="M149.38,96a35.66,35.66,0,0,1-10.77-2.65,36.22,36.22,0,0,0,12.11,10.38s.41-1.75,1.14-4.53a4.49,4.49,0,0,1-2.48-3.2"/><path class="08354f5a-e9d1-4d80-9634-c410626517d0" d="M203.44,69.05A43.87,43.87,0,0,1,200,74.33a4.47,4.47,0,0,1,0,4.13,35.44,35.44,0,0,1,2,3.79l.08.14a36,36,0,0,0,1.56-10.49c0-1,0-1.9-.12-2.84"/><path class="08354f5a-e9d1-4d80-9634-c410626517d0" d="M197.79,80.49a4.45,4.45,0,0,1-3.28.13,51,51,0,0,1-21.78,13.14,64.61,64.61,0,0,1-14.57,2.51l0,.08c2.29,3.21,5.28,6.86,9.39,11.58a36,36,0,0,0,32.94-21.44l-.06-.17a35.88,35.88,0,0,0-2.62-5.83"/><path class="9d728ab5-2390-49fb-b12f-4661170b5530" d="M192.38,73.68A46.19,46.19,0,0,0,173.72,60a4.46,4.46,0,0,1-4.33,1.67c-.77,1.24-1.55,2.55-2.33,3.95a125.37,125.37,0,0,0-10.48,26.07,4.51,4.51,0,0,1,1.45,2,47.06,47.06,0,0,0,16.31-3.21A51,51,0,0,0,192.1,78.66a4.47,4.47,0,0,1,.28-5"/><path class="807e7961-aea7-4d2e-812e-1780ea1f4a5d" d="M188.24,43.12c-.14,0-6.45,2.15-14.18,11.87a4.47,4.47,0,0,1,.6,2.24c0,.08,0,.16,0,.23a56.43,56.43,0,0,1,5.19,2.37,48.08,48.08,0,0,1,14.88,12.22,4.55,4.55,0,0,1,1.24-.18,4.5,4.5,0,0,1,1.54.28c2.13-3,3.63-5.56,4.79-7.24a36,36,0,0,0-14.05-21.8"/><path class="69c48b28-1b1f-45fb-ab46-7b6176587699" d="M143.17,51a25.64,25.64,0,0,1,1.13-6.78,36.24,36.24,0,0,0-9.15,11.12c1.59-.22,3.15-.42,4.7-.62A4.5,4.5,0,0,1,143.17,51"/><path class="69c48b28-1b1f-45fb-ab46-7b6176587699" d="M145.63,75.51a85,85,0,0,1-2.5-15.81,4.5,4.5,0,0,1-2.94-2.54,53.76,53.76,0,0,0-6.1,1.31,36,36,0,0,0,2.39,31.7A65.51,65.51,0,0,0,149.86,93a4.51,4.51,0,0,1,1.87-1.81,70.72,70.72,0,0,1-6.1-15.69"/><path class="9d728ab5-2390-49fb-b12f-4661170b5530" d="M165.68,57.32l-.45-.08a86.73,86.73,0,0,0-16.54-.92,4.5,4.5,0,0,1-2.77,3.23A56.37,56.37,0,0,0,148,72.82c2.28,7.8,3.72,12.64,6.33,17.54A160.56,160.56,0,0,1,160.3,73.6a99.75,99.75,0,0,1,6.78-13.11,4.47,4.47,0,0,1-1.39-3.16"/><path class="8228a578-6614-458a-91ac-614e3a5d8ae6" d="M167,36.19A35.84,35.84,0,0,0,147.42,42a59.48,59.48,0,0,0-1.36,9.25,4.51,4.51,0,0,1,2.48,2.65,64,64,0,0,1,17.77,1.05,4.48,4.48,0,0,1,5.7-1.8,59.67,59.67,0,0,1,13.16-12A35.86,35.86,0,0,0,167,36.19"/><path d="M518.54,41.1l-7.38,17.35L507.77,67l-3.46-8.53L497.46,41.1H494.3L506.1,70.19l-5.42,12.64h3.1L521.7,41.1ZM317.18,70.55h7.27V41h-7.27Zm46.69,0h7.27V41h-7.27Zm196-14.73c0,9.3,6.85,15,15.13,15a15,15,0,0,0,10.72-4.41l-2-2A12.46,12.46,0,0,1,575,68.1c-6.67,0-12.27-4.35-12.27-12.28s5.6-12.28,12.27-12.28a12.46,12.46,0,0,1,8.82,3.52l1.9-1.85A15.29,15.29,0,0,0,575,40.8c-8.52,0-15.13,5.72-15.13,15m-29.66-9.48V41.1h-2.86V70.55h2.92V54.15c0-6.08,4.23-10.67,10.3-10.73,6.37-.06,10.48,3.52,10.48,10.19V70.55H554v-17c0-8.17-5.42-13-13.28-13-4.11.06-8.22,1.73-10.48,5.78M407.11,55.82c0-5.6,3.87-8.88,8.7-8.88,11.43,0,11.43,17.82,0,17.82-4.82,0-8.7-3.34-8.7-8.94m-7.27,0c0,10.31,6.43,15.68,15.13,15.62,3.27-.06,7.86-1.73,9.53-5.19l.36,4.29h6.85V41.16h-7l-.24,4.05c-1.67-2.92-5.42-4.77-9.35-4.77H415c-8.51,0-15.16,5.3-15.16,15.38m-63.13-.72c0-5.13,3.45-8.29,7.68-8.29S352,50,352,55.11s-3.45,8.17-7.62,8.17-7.68-3-7.68-8.17m14.41-13.24a11.69,11.69,0,0,0-6.73-1.67c-8.22,0-14.89,5.72-14.89,14.9s5.72,14.78,14.89,14.78c3.63,0,7.44,1.85,7.44,5.9s-3.27,6.32-7.44,6.32-7.68-2.5-7.68-6.32h-7.21c0,7.93,6.37,13.12,14.89,13.12s14.71-5,14.71-13.12c0-3.76-1.19-7.27-6.07-9.72,4.82-2.21,6.19-7.33,6.19-11a12.54,12.54,0,0,0-3.1-8.7l3.28-4.17L354,38.17Zm29.54-8.23v7.57h-5.48v6.26h5.48v12.7c0,7.33,4.17,11,10.54,10.73a16.21,16.21,0,0,0,6-1.25l-2-6.2a8.28,8.28,0,0,1-3.51.89c-2.26,0-3.81-1.37-3.81-4.17V47.48H396V41.22h-8.1V32.87Zm57.18,36.9h7.21V28.88h-7.21ZM283.11,36.27h8.58c9.05,0,12.86,6.5,13,13,.18,6.8-3.57,13.71-13,13.71h-8.58Zm-7.8-7.45V70.55h16.38c14.59,0,21-10.67,20.85-21.22C312.36,39,306,28.81,291.69,28.81Zm193.92,0V70.55h26.68v-3H472.45V28.81Zm-152.7,4.06c0,5.66,8.58,5.66,8.58,0a4.29,4.29,0,0,0-8.58,0m46.69,0c0,5.66,8.58,5.66,8.58,0a4.29,4.29,0,0,0-8.58,0"/><rect class="f8ef77b4-5c36-4586-9da4-bf817af8c6fe" x="275.31" y="95.85" width="310.41" height="0.64"/><rect class="80f67a03-9036-4db2-8894-822eea2bbf27" x="275.31" y="95.84" width="310.41" height="0.64"/><rect class="f8ef77b4-5c36-4586-9da4-bf817af8c6fe" x="275.31" y="104.8" width="1.93" height="10.34"/><polygon class="f8ef77b4-5c36-4586-9da4-bf817af8c6fe" points="286.24 104.79 288.19 104.79 288.19 115.14 286.98 115.14 286.98 115.16 281.54 108.17 281.54 115.14 279.6 115.14 279.6 104.8 281.18 104.8 286.24 111.21 286.24 104.79"/><polygon class="f8ef77b4-5c36-4586-9da4-bf817af8c6fe" points="297.14 104.79 299.09 104.79 299.09 115.14 297.88 115.14 297.88 115.16 292.44 108.17 292.44 115.14 290.49 115.14 290.49 104.8 292.07 104.8 297.14 111.21 297.14 104.79"/><path class="f8ef77b4-5c36-4586-9da4-bf817af8c6fe" d="M311.55,110a5.31,5.31,0,1,1-10.62,0,5.31,5.31,0,1,1,10.62,0m-8.7,0a3.39,3.39,0,1,0,6.78,0,3.4,3.4,0,1,0-6.78,0"/><polygon class="f8ef77b4-5c36-4586-9da4-bf817af8c6fe" points="318.48 115.19 316.46 115.19 312.16 104.8 314.35 104.8 317.46 112.85 320.6 104.8 322.78 104.8 318.48 115.19"/><path class="f8ef77b4-5c36-4586-9da4-bf817af8c6fe" d="M331.68,113.19h-5.41l-.89,2h-2.11l4.64-10.34H330l4.64,10.34h-2.13ZM329,107l-1.92,4.4h3.84Z"/><polygon class="f8ef77b4-5c36-4586-9da4-bf817af8c6fe" points="336.91 106.57 333.63 106.57 333.63 104.8 342.14 104.8 342.14 106.57 338.86 106.57 338.86 115.14 336.91 115.14 336.91 106.57"/><rect class="f8ef77b4-5c36-4586-9da4-bf817af8c6fe" x="343.7" y="104.8" width="1.93" height="10.34"/><path class="f8ef77b4-5c36-4586-9da4-bf817af8c6fe" d="M358.3,110a5.31,5.31,0,1,1-10.62,0,5.31,5.31,0,1,1,10.62,0m-8.7,0a3.39,3.39,0,1,0,6.78,0,3.4,3.4,0,1,0-6.78,0"/><polygon class="f8ef77b4-5c36-4586-9da4-bf817af8c6fe" points="366.89 104.79 368.85 104.79 368.85 115.14 367.63 115.14 367.63 115.16 362.2 108.17 362.2 115.14 360.25 115.14 360.25 104.8 361.83 104.8 366.89 111.21 366.89 104.79"/><polygon class="f8ef77b4-5c36-4586-9da4-bf817af8c6fe" points="395.55 115.14 387.81 115.14 387.81 104.8 395.55 104.8 395.55 106.69 389.74 106.69 389.74 109.07 395.34 109.07 395.34 110.89 389.74 110.89 389.74 113.22 395.55 113.22 395.55 115.14"/><path class="f8ef77b4-5c36-4586-9da4-bf817af8c6fe" d="M406.52,109.88a4.9,4.9,0,0,1-5.17,5.26h-4.06V104.8h4.06a4.88,4.88,0,0,1,5.17,5.08m-7.3,3.38h2.13a3.31,3.31,0,0,0,0-6.62h-2.13Z"/><path class="f8ef77b4-5c36-4586-9da4-bf817af8c6fe" d="M417.24,104.82v5.92c0,3.06-1.88,4.62-4.48,4.62a4.31,4.31,0,0,1-4.59-4.62v-5.92h1.93v5.92a2.54,2.54,0,0,0,2.67,2.85c1.61,0,2.53-1.08,2.53-2.85v-5.92Z"/><path class="f8ef77b4-5c36-4586-9da4-bf817af8c6fe" d="M428.62,113.84a5.45,5.45,0,0,1-3.93,1.54,5.08,5.08,0,0,1-5.48-5.33,5.2,5.2,0,0,1,5.48-5.45,5.33,5.33,0,0,1,3.8,1.58l-1.3,1.26a3.55,3.55,0,0,0-2.5-1,3.39,3.39,0,0,0-3.56,3.59,3.31,3.31,0,0,0,3.56,3.5,3.8,3.8,0,0,0,2.6-1Z"/><path class="f8ef77b4-5c36-4586-9da4-bf817af8c6fe" d="M437,113.19h-5.41l-.89,2h-2.11l4.64-10.34h2.13L440,115.14h-2.13Zm-2.7-6.22-1.92,4.4h3.84Z"/><polygon class="f8ef77b4-5c36-4586-9da4-bf817af8c6fe" points="442.19 106.57 438.91 106.57 438.91 104.8 447.41 104.8 447.41 106.57 444.13 106.57 444.13 115.14 442.19 115.14 442.19 106.57"/><rect class="f8ef77b4-5c36-4586-9da4-bf817af8c6fe" x="448.98" y="104.8" width="1.94" height="10.34"/><path class="f8ef77b4-5c36-4586-9da4-bf817af8c6fe" d="M463.58,110A5.31,5.31,0,1,1,453,110a5.31,5.31,0,1,1,10.62,0m-8.7,0a3.39,3.39,0,1,0,6.78,0,3.4,3.4,0,1,0-6.78,0"/><polygon class="f8ef77b4-5c36-4586-9da4-bf817af8c6fe" points="472.17 104.79 474.12 104.79 474.12 115.14 472.91 115.14 472.91 115.16 467.48 108.17 467.48 115.14 465.53 115.14 465.53 104.8 467.11 104.8 472.17 111.21 472.17 104.79"/><rect class="f8ef77b4-5c36-4586-9da4-bf817af8c6fe" x="493.98" y="104.8" width="1.93" height="10.34"/><polygon class="f8ef77b4-5c36-4586-9da4-bf817af8c6fe" points="504.91 104.79 506.86 104.79 506.86 115.14 505.65 115.14 505.65 115.16 500.21 108.17 500.21 115.14 498.26 115.14 498.26 104.8 499.84 104.8 504.91 111.21 504.91 104.79"/><path class="f8ef77b4-5c36-4586-9da4-bf817af8c6fe" d="M518.12,113.84a5.45,5.45,0,0,1-3.93,1.54,5.08,5.08,0,0,1-5.48-5.33,5.2,5.2,0,0,1,5.48-5.45,5.33,5.33,0,0,1,3.8,1.58l-1.3,1.26a3.55,3.55,0,0,0-2.5-1,3.39,3.39,0,0,0-3.56,3.59,3.31,3.31,0,0,0,3.56,3.5,3.81,3.81,0,0,0,2.6-1Z"/><path class="f8ef77b4-5c36-4586-9da4-bf817af8c6fe" d="M528.5,104.82v5.92c0,3.06-1.88,4.62-4.48,4.62a4.31,4.31,0,0,1-4.59-4.62v-5.92h1.93v5.92a2.54,2.54,0,0,0,2.67,2.85c1.61,0,2.53-1.08,2.53-2.85v-5.92Z"/><path class="f8ef77b4-5c36-4586-9da4-bf817af8c6fe" d="M539.18,107.8a2.1,2.1,0,0,1-1.34,2,2.52,2.52,0,0,1,1.65,2.3c0,2.31-1.73,3-3.87,3h-4.9V104.8h4.9c2,0,3.56.92,3.56,3M532.63,109h3c1.23,0,1.63-.52,1.63-1.11s-.38-1.27-1.62-1.27h-3Zm0,4.37h3c.8,0,1.93-.27,1.93-1.24s-1.14-1.42-1.93-1.42h-3Z"/><path class="f8ef77b4-5c36-4586-9da4-bf817af8c6fe" d="M548.56,113.19h-5.41l-.89,2h-2.11l4.64-10.34h2.13l4.64,10.34h-2.13Zm-2.7-6.22-1.92,4.4h3.84Z"/><polygon class="f8ef77b4-5c36-4586-9da4-bf817af8c6fe" points="553.79 106.57 550.51 106.57 550.51 104.8 559.02 104.8 559.02 106.57 555.74 106.57 555.74 115.14 553.79 115.14 553.79 106.57"/><rect class="f8ef77b4-5c36-4586-9da4-bf817af8c6fe" x="560.58" y="104.8" width="1.93" height="10.34"/><path class="f8ef77b4-5c36-4586-9da4-bf817af8c6fe" d="M575.19,110a5.31,5.31,0,1,1-10.62,0,5.31,5.31,0,1,1,10.62,0m-8.7,0a3.39,3.39,0,1,0,6.78,0,3.4,3.4,0,1,0-6.78,0"/><polygon class="f8ef77b4-5c36-4586-9da4-bf817af8c6fe" points="583.77 104.79 585.73 104.79 585.73 115.14 584.51 115.14 584.51 115.16 579.08 108.17 579.08 115.14 577.13 115.14 577.13 104.8 578.71 104.8 583.77 111.21 583.77 104.79"/><rect class="f8ef77b4-5c36-4586-9da4-bf817af8c6fe" x="375.94" y="110.32" width="5.38" height="1.63"/><rect class="f8ef77b4-5c36-4586-9da4-bf817af8c6fe" x="480.54" y="110.32" width="5.38" height="1.63"/></svg>