<svg xmlns="http://www.w3.org/2000/svg" xmlns:xlink="http://www.w3.org/1999/xlink" width="30" height="30" viewBox="0 0 30 30">
    <defs>
        <path id="a" d="M.078.06v5.771h8.211c-.353 1.865-1.428 3.445-3.044 4.502v3.743h4.93c2.886-2.597 4.55-6.42 4.55-10.964 0-1.058-.097-2.075-.277-3.051H.078z"/>
        <path id="c" d="M.071.077v3.865c2.51 4.875 7.67 8.218 13.635 8.218 4.12 0 7.574-1.336 10.098-3.615l-4.93-3.742c-1.367.895-3.115 1.424-5.168 1.424-3.974 0-7.338-2.624-8.537-6.15H.07z"/>
        <path id="e" d="M1.7.013a14.64 14.64 0 0 0 0 13.398l5.097-3.865a8.783 8.783 0 0 1-.478-2.834c0-.984.173-1.94.478-2.835V.013H1.7z"/>
        <path id="g" d="M.071 8.225L5.17 12.09c1.2-3.526 4.563-6.15 8.537-6.15 2.24 0 4.252.753 5.833 2.23l4.376-4.278C21.273 1.485 17.82.007 13.706.007 7.742.007 2.582 3.35.071 8.225z"/>
    </defs>
    <g fill="none" fill-rule="evenodd">
        <g transform="translate(15.257 12.219)">
            <mask id="b" fill="#fff">
                <use xlink:href="#a"/>
            </mask>
            <path fill="#3E82F1" d="M-8.4 22.364h31.602v-30.59H-8.399z" mask="url(#b)"/>
        </g>
        <g transform="translate(1.629 17.75)">
            <mask id="d" fill="#fff">
                <use xlink:href="#c"/>
            </mask>
            <path fill="#32A753" d="M-8.406 20.447h40.687V-8.211H-8.406z" mask="url(#d)"/>
        </g>
        <g transform="translate(0 8.28)">
            <mask id="f" fill="#fff">
                <use xlink:href="#e"/>
            </mask>
            <path fill="#F9BB00" d="M-8.4 21.698h23.674V-8.275H-8.4z" mask="url(#f)"/>
        </g>
        <g transform="translate(1.629 .068)">
            <mask id="h" fill="#fff">
                <use xlink:href="#g"/>
            </mask>
            <path fill="#E74133" d="M-8.406 20.377h40.798V-8.28H-8.406z" mask="url(#h)"/>
        </g>
    </g>
</svg>
