<svg xmlns="http://www.w3.org/2000/svg" width="30" height="30" viewBox="0 0 30 30">
    <g fill="none" fill-rule="evenodd">
        <path fill="#0071A1" d="M27.725.12H2.416c-1.208 0-2.19.958-2.19 2.14v25.414c0 1.182.982 2.143 2.19 2.143h25.31c1.211 0 2.197-.96 2.197-2.143V2.26c0-1.182-.986-2.14-2.198-2.14"/>
        <path fill="#FFFFFE" d="M6.832 4.207a2.555 2.555 0 1 1-.004 5.11 2.555 2.555 0 0 1 .004-5.11zM4.627 25.425h4.408V11.252H4.627v14.173zM11.798 11.252h4.222v1.938h.06c.588-1.114 2.026-2.29 4.169-2.29 4.459 0 5.283 2.935 5.283 6.752v7.773h-4.403v-6.892c0-1.644-.03-3.758-2.29-3.758-2.292 0-2.641 1.791-2.641 3.64v7.01h-4.4V11.252"/>
    </g>
</svg>
